<svg id="Layer_1" data-name="Layer 1" xmlns="http://www.w3.org/2000/svg" xmlns:xlink="http://www.w3.org/1999/xlink" viewBox="0 0 4631.53 982.59"><defs><style>.cls-1{fill:url(#linear-gradient);}.cls-2{fill:#efefef;}</style><linearGradient id="linear-gradient" x1="280.94" y1="491.31" x2="7354.59" y2="491.31" gradientUnits="userSpaceOnUse"><stop offset="0" stop-color="#0f022d"/><stop offset="0.31" stop-color="#4e2bcd"/><stop offset="0.66" stop-color="#905bf4"/><stop offset="1" stop-color="#efefef"/></linearGradient></defs><rect class="cls-1" width="4631.53" height="982.62"/><path class="cls-2" d="M2837.89,466.41a30.54,30.54,0,1,1-8.6,21.24A29,29,0,0,1,2837.89,466.41Zm21.29.32a19.67,19.67,0,0,0-14.66,6,22.06,22.06,0,0,0,0,29.9,20.89,20.89,0,0,0,29.24,0,22,22,0,0,0,0-29.9A19.58,19.58,0,0,0,2859.18,466.73Z"/><path class="cls-2" d="M2924.33,470.19a19.11,19.11,0,0,1,14.9,6.67q5.94,6.67,5.93,17t-5.88,17a19.22,19.22,0,0,1-15,6.63,17.73,17.73,0,0,1-15.82-8.57v20.7h-9.31V471.18h9.31v7.74A17.71,17.71,0,0,1,2924.33,470.19Zm-2.06,38.38a12.61,12.61,0,0,0,9.72-4.12,16.77,16.77,0,0,0,0-21.24,12.61,12.61,0,0,0-9.72-4.12,13.19,13.19,0,0,0-10,4.16,16.2,16.2,0,0,0,0,21.2A13.23,13.23,0,0,0,2922.27,508.57Z"/><path class="cls-2" d="M2976.46,470.19q10.78,0,17.17,7.46t5.73,18.73h-36.82a13.87,13.87,0,0,0,4.45,9.52,14.13,14.13,0,0,0,9.72,3.41,15.26,15.26,0,0,0,7.33-1.72,10.87,10.87,0,0,0,4.77-5h9.64a21,21,0,0,1-8.4,11.12,24.11,24.11,0,0,1-13.43,3.79q-10.29,0-16.92-6.63t-6.63-16.93q0-10.29,6.59-17T2976.46,470.19Zm0,8.08a13.1,13.1,0,0,0-8.69,2.92,14.43,14.43,0,0,0-4.73,7.62h26.35a13.53,13.53,0,0,0-4.49-7.66A12.65,12.65,0,0,0,2976.46,478.27Z"/><path class="cls-2" d="M3032.88,470.19q7.65,0,12,4.7t4.33,13v28.58h-9.31V489.79q0-10.69-9.88-10.7-5.94,0-9.11,3.66T3017.72,493v23.47h-9.3v-45.3h9.3v7.5A16.72,16.72,0,0,1,3032.88,470.19Z"/><path class="cls-2" d="M3132.46,458.83h10.95v57.65h-9.3V471.43l-17.79,26.85h-.91l-17.71-26.85v45.05h-9.3V458.83h10.95l16.55,24.87Z"/><path class="cls-2" d="M3160.21,450.76a6.17,6.17,0,0,1,4.37,1.6,5.33,5.33,0,0,1,1.73,4.08,5.56,5.56,0,0,1-1.73,4.2,6.07,6.07,0,0,1-4.37,1.65,6,6,0,0,1-4.28-1.65,5.56,5.56,0,0,1-1.73-4.2,5.33,5.33,0,0,1,1.73-4.08A6.06,6.06,0,0,1,3160.21,450.76Zm-4.61,65.72v-45.3h9.31v45.3Z"/><path class="cls-2" d="M3200.16,470.19q7.65,0,12,4.7t4.33,13v28.58h-9.31V489.79q0-10.69-9.88-10.7-5.94,0-9.11,3.66T3185,493v23.47h-9.3v-45.3h9.3v7.5A16.71,16.71,0,0,1,3200.16,470.19Z"/><path class="cls-2" d="M3262.75,453.06h9.31v63.42h-9.31V508.9a18,18,0,0,1-15.89,8.57,19.19,19.19,0,0,1-15-6.63q-5.89-6.63-5.89-17t5.93-17a19.12,19.12,0,0,1,14.91-6.67,18,18,0,0,1,16,8.73Zm-13.91,55.51a13.21,13.21,0,0,0,10-4.12,16.2,16.2,0,0,0,0-21.2,13.17,13.17,0,0,0-10-4.16,12.58,12.58,0,0,0-9.72,4.12,16.77,16.77,0,0,0,0,21.24A12.58,12.58,0,0,0,3248.84,508.57Z"/><path class="cls-2" d="M3302.86,517.47q-9,0-15-4.12a17,17,0,0,1-7.29-11.45h9.47a8.94,8.94,0,0,0,4.12,5.56q3,1.77,8.81,1.77a15.49,15.49,0,0,0,7.13-1.36,4.18,4.18,0,0,0,2.59-3.83,3.4,3.4,0,0,0-1.27-2.72,8.21,8.21,0,0,0-3-1.56c-1.13-.33-2.95-.8-5.48-1.4l-2.14-.49q-10.12-2.47-14.08-5.15t-4-8.12a12.4,12.4,0,0,1,5.23-10.58q5.22-3.82,13.88-3.83,8.48,0,13.46,3.67a16,16,0,0,1,6.3,10.09h-9.39q-2-5.52-10.54-5.52a14.67,14.67,0,0,0-7,1.4,4.21,4.21,0,0,0-2.55,3.79,3.13,3.13,0,0,0,2.05,3,55.85,55.85,0,0,0,8.65,2.51c2.86.66,5.12,1.23,6.8,1.69a44.19,44.19,0,0,1,5.23,1.86,14.14,14.14,0,0,1,4.12,2.47,10.53,10.53,0,0,1,2.3,3.25,10.77,10.77,0,0,1,.91,4.57,12.24,12.24,0,0,1-5.48,10.75Q3311.35,517.47,3302.86,517.47Z"/><path class="cls-2" d="M2876.53,615.31l-5.85-15.48h-25l-5.84,15.48h-9.89l22.32-57.65h11.86l22.32,57.65ZM2849,591h18.28l-9.14-24.14Z"/><path class="cls-2" d="M2895.72,615.31V557.66h9.3v57.65Z"/><path class="cls-2" d="M2982.11,557.66h9.31v57.65h-9.31v-25.2h-29.57v25.2h-9.3V557.66h9.3v23.56h29.57Z"/><path class="cls-2" d="M3038.77,570h9.31v45.3h-9.31v-7.57q-5.43,8.55-15.81,8.56a19.2,19.2,0,0,1-15-6.63q-5.89-6.63-5.89-17t5.93-17a19.09,19.09,0,0,1,14.91-6.67,17.69,17.69,0,0,1,15.89,8.72Zm-13.83,37.39a13.24,13.24,0,0,0,10-4.11,16.18,16.18,0,0,0,0-21.21,13.17,13.17,0,0,0-10-4.16,12.58,12.58,0,0,0-9.72,4.12,16.79,16.79,0,0,0,0,21.25A12.61,12.61,0,0,0,3024.94,607.4Z"/><path class="cls-2" d="M3111.66,569q7.17,0,11.24,4.57t4.08,12.64v29.07h-9.31V588.22q0-10.31-9-10.3a9.73,9.73,0,0,0-8.24,3.79q-2.88,3.79-2.88,10.13l.08,23.47h-9.39V588.22q0-10.31-9-10.3a9.6,9.6,0,0,0-8.19,3.79q-2.85,3.79-2.84,10.13v23.47H3059V570h9.31v7.25q4.93-8.24,14.08-8.23,10.54,0,14,9.47Q3101.29,569,3111.66,569Z"/><path class="cls-2" d="M3162.64,569a19.1,19.1,0,0,1,14.91,6.67q5.92,6.66,5.93,17t-5.89,17a19.22,19.22,0,0,1-15,6.63,17.74,17.74,0,0,1-15.82-8.56v7.57h-9.3V551.9h9.3v25.85A17.71,17.71,0,0,1,3162.64,569Zm-2.06,38.37a12.64,12.64,0,0,0,9.72-4.11,16.79,16.79,0,0,0,0-21.25,12.61,12.61,0,0,0-9.72-4.12,13.15,13.15,0,0,0-10,4.16,16.18,16.18,0,0,0,0,21.21A13.22,13.22,0,0,0,3160.58,607.4Z"/><path class="cls-2" d="M3223.58,570h9.31v45.3h-9.31v-7.49q-5.26,8.48-15.07,8.48-7.49,0-11.77-4.7t-4.28-13V570h9.3V596.7q0,10.71,9.72,10.7,5.76,0,8.94-3.66t3.16-10.25Z"/><path class="cls-2" d="M3268,569a12.11,12.11,0,0,1,2.72.24v9.47c-1.1-.11-2-.16-2.8-.16q-6.77,0-10.88,4t-4.12,12v20.75h-9.3V570h9.3v9Q3257.19,569,3268,569Z"/><path class="cls-2" d="M3312.54,570h9.3v44.72q0,10.14-5.93,16.15t-16,6a25.5,25.5,0,0,1-14.86-4.36,18.32,18.32,0,0,1-7.7-12.52H3287a10.66,10.66,0,0,0,4.53,6.38,14.75,14.75,0,0,0,8.16,2.18q6.26,0,9.55-3.46c2.19-2.3,3.3-5.65,3.3-10v-7.75a18,18,0,0,1-15.82,8.49,19.32,19.32,0,0,1-15-6.59c-3.95-4.4-5.93-10-5.93-16.81s2-12.33,6-16.75a19.27,19.27,0,0,1,14.95-6.63,18.09,18.09,0,0,1,9.18,2.34,19.12,19.12,0,0,1,6.64,6.38Zm-13.84,36.9a13.3,13.3,0,0,0,10-4.07,15.58,15.58,0,0,0,0-20.8,13.24,13.24,0,0,0-9.92-4.12A12.65,12.65,0,0,0,3289,582a16.15,16.15,0,0,0,0,20.84A12.73,12.73,0,0,0,3298.7,606.91Z"/><path class="cls-2" d="M2839.06,347.78h-9.15V345.7h20.68v2.08h-9.46v10h-2.07Z"/><path class="cls-2" d="M2852.18,345.71h2.61l7.74,10.07,7.72-10.07h2.61v12.07h-2.07v-9.38l-7.21,9.38h-2.13l-7.2-9.37v9.37h-2.07Z"/><path class="cls-2" d="M1496.22,345.7H1392a82.9,82.9,0,0,0-82.8,82.8V532.68a82.9,82.9,0,0,0,82.8,82.8h104.19a82.9,82.9,0,0,0,82.8-82.8V428.5A82.9,82.9,0,0,0,1496.22,345.7Zm39.86,187a39.91,39.91,0,0,1-39.86,39.87H1392a39.91,39.91,0,0,1-39.86-39.87V428.5A39.91,39.91,0,0,1,1392,388.63h104.19a39.91,39.91,0,0,1,39.86,39.87Z"/><path class="cls-2" d="M2474.24,615.48,2430,512l-49.56-116a82.65,82.65,0,0,0-76.15-50.27h-64.85A82.62,82.62,0,0,0,2163.35,396l-49.57,116-44.21,103.45h46.69l27.85-65.21,7.14-16.72,18.35-42.93L2178,471l24.79-58.1a39.82,39.82,0,0,1,36.67-24.2h64.85a39.75,39.75,0,0,1,36.66,24.2l31.55,73.83h-159.3l-18.34,42.92h196l36.69,85.88Z"/><rect class="cls-2" x="2517.18" y="345.7" width="42.95" height="269.79"/><polygon class="cls-2" points="2786.97 345.7 2786.97 615.48 2744.02 615.48 2744.02 529.6 2602.53 529.6 2620.89 486.68 2744.02 486.68 2744.02 345.7 2786.97 345.7"/><path class="cls-2" d="M2026.63,615.48H1983.7V429.34A40.74,40.74,0,0,0,1943,388.65H1664.89V615.48H1622V345.72h321.33a83.45,83.45,0,0,1,83.35,83.36Z"/><polygon class="cls-2" points="1845.76 445.18 1845.76 615.48 1802.83 615.48 1802.83 426.95 1845.76 445.18"/></svg>