<svg id="Layer_1" data-name="Layer 1" xmlns="http://www.w3.org/2000/svg" xmlns:xlink="http://www.w3.org/1999/xlink" viewBox="0 0 1080 1080"><defs><style>.cls-1,.cls-7,.cls-9{fill:#0f022d;}.cls-2{fill:#4e2bcd;}.cls-3{fill:#905bf4;}.cls-4{fill:#efefef;}.cls-5{fill:url(#linear-gradient);}.cls-6,.cls-7{font-size:47.44px;}.cls-6,.cls-8{fill:#fff;}.cls-6,.cls-7,.cls-8,.cls-9{font-family:Cairo-Medium, Cairo;font-weight:500;}.cls-8,.cls-9{font-size:20.58px;}</style><linearGradient id="linear-gradient" x1="972" y1="2.18" x2="972" y2="1080.06" gradientTransform="translate(-432 -432)" gradientUnits="userSpaceOnUse"><stop offset="0" stop-color="#0f022d"/><stop offset="0.31" stop-color="#4e2bcd"/><stop offset="0.66" stop-color="#905bf4"/><stop offset="1" stop-color="#efefef"/></linearGradient></defs><rect class="cls-1" x="432" y="432" width="216" height="1080" transform="translate(-432 1512) rotate(-90)"/><rect class="cls-2" x="432" y="216" width="216" height="1080" transform="translate(-216 1296) rotate(-90)"/><rect class="cls-3" x="432" width="216" height="1080" transform="translate(0 1080) rotate(-90)"/><rect class="cls-4" x="432" y="-216" width="216" height="1080" transform="translate(216 864) rotate(-90)"/><rect class="cls-5" x="432" y="-432" width="216" height="1080" transform="translate(432 648) rotate(-90)"/><text class="cls-6" transform="translate(29.65 1037.8)">Mednight</text><text class="cls-6" transform="translate(29.65 820.54)">Purple Heart</text><text class="cls-6" transform="translate(29.65 603.28)">Lavender</text><text class="cls-7" transform="translate(29.65 386.02)">Seashell</text><text class="cls-6" transform="translate(29.65 168.76)">Gradient</text><text class="cls-8" transform="translate(945.63 1013.86)">HEX<tspan x="0" y="24.69">0F022D</tspan></text><text class="cls-8" transform="translate(944.94 795.91)">HEX<tspan x="0" y="24.69">4E2BCD</tspan></text><text class="cls-8" transform="translate(945.93 579.65)">HEX<tspan x="0" y="24.69">905BF4</tspan></text><text class="cls-9" transform="translate(947.01 363.84)">HEX<tspan x="0" y="24.69">EFEFEF</tspan></text></svg>