<svg id="Layer_1" data-name="Layer 1" xmlns="http://www.w3.org/2000/svg" viewBox="0 0 1080 1080"><defs><style>.cls-1{fill:#0f022d;}.cls-2{opacity:0.2;}.cls-3,.cls-7{fill:#fff;}.cls-4,.cls-5,.cls-6{fill:none;stroke:#fff;stroke-miterlimit:10;stroke-width:0.25px;}.cls-5{stroke-dasharray:6.02 6.02;}.cls-6{stroke-dasharray:6 6;}.cls-7{font-size:5.3px;font-family:Alexandria-Regular, Alexandria;}</style></defs><rect class="cls-1" width="1080" height="1080"/><g class="cls-2"><path class="cls-3" d="M326.56,487.83H286.27a32.07,32.07,0,0,0-32,32v40.3a32.07,32.07,0,0,0,32,32h40.29a32.06,32.06,0,0,0,32-32v-40.3A32.06,32.06,0,0,0,326.56,487.83ZM342,560.15a15.44,15.44,0,0,1-15.42,15.42H286.27a15.43,15.43,0,0,1-15.42-15.42v-40.3a15.43,15.43,0,0,1,15.42-15.42h40.29A15.44,15.44,0,0,1,342,519.85Z"/><path class="cls-3" d="M704.81,592.17l-17.1-40-19.17-44.88a32,32,0,0,0-29.45-19.44H614a32,32,0,0,0-29.44,19.44L565.4,552.16l-17.1,40h18.06L577.13,567l2.76-6.47,7.1-16.6,3.25-7.61,9.59-22.47A15.4,15.4,0,0,1,614,504.44h25.08a15.38,15.38,0,0,1,14.18,9.36l12.2,28.56H603.86L596.77,559h75.79l14.19,33.21Z"/><rect class="cls-3" x="721.42" y="487.83" width="16.61" height="104.34"/><polygon class="cls-3" points="825.76 487.83 825.76 592.17 809.15 592.17 809.15 558.96 754.43 558.96 761.53 542.36 809.15 542.36 809.15 487.83 825.76 487.83"/><path class="cls-3" d="M531.7,592.17H515.09v-72a15.76,15.76,0,0,0-15.74-15.74H391.79v87.73h-16.6V487.84H499.46a32.27,32.27,0,0,1,32.24,32.24Z"/><polygon class="cls-3" points="461.75 526.31 461.75 592.17 445.14 592.17 445.14 519.26 461.75 526.31"/></g><line class="cls-4" x1="232.88" y1="487.84" x2="235.88" y2="487.84"/><line class="cls-5" x1="241.9" y1="487.84" x2="841.11" y2="487.84"/><line class="cls-4" x1="844.12" y1="487.84" x2="847.12" y2="487.84"/><line class="cls-4" x1="232.88" y1="504.41" x2="235.88" y2="504.41"/><line class="cls-5" x1="241.9" y1="504.41" x2="841.11" y2="504.41"/><line class="cls-4" x1="844.12" y1="504.41" x2="847.12" y2="504.41"/><line class="cls-4" x1="232.88" y1="575.53" x2="235.88" y2="575.53"/><line class="cls-5" x1="241.9" y1="575.53" x2="841.11" y2="575.53"/><line class="cls-4" x1="844.12" y1="575.53" x2="847.12" y2="575.53"/><line class="cls-4" x1="232.88" y1="558.94" x2="235.88" y2="558.94"/><line class="cls-5" x1="241.9" y1="558.94" x2="841.11" y2="558.94"/><line class="cls-4" x1="844.12" y1="558.94" x2="847.12" y2="558.94"/><line class="cls-4" x1="232.88" y1="542.35" x2="235.88" y2="542.35"/><line class="cls-5" x1="241.9" y1="542.35" x2="841.11" y2="542.35"/><line class="cls-4" x1="844.12" y1="542.35" x2="847.12" y2="542.35"/><line class="cls-4" x1="232.88" y1="592.17" x2="235.88" y2="592.17"/><line class="cls-5" x1="241.9" y1="592.17" x2="841.11" y2="592.17"/><line class="cls-4" x1="844.12" y1="592.17" x2="847.12" y2="592.17"/><line class="cls-6" x1="254.24" y1="465.65" x2="254.24" y2="614.35"/><line class="cls-6" x1="270.85" y1="465.65" x2="270.85" y2="614.35"/><line class="cls-6" x1="341.98" y1="465.65" x2="341.98" y2="614.35"/><line class="cls-6" x1="358.58" y1="465.65" x2="358.58" y2="614.35"/><line class="cls-6" x1="375.19" y1="465.65" x2="375.19" y2="614.35"/><line class="cls-6" x1="391.72" y1="465.65" x2="391.72" y2="614.35"/><line class="cls-6" x1="445.14" y1="465.65" x2="445.14" y2="614.35"/><line class="cls-6" x1="461.75" y1="465.65" x2="461.75" y2="614.35"/><line class="cls-6" x1="515.12" y1="465.65" x2="515.12" y2="614.35"/><line class="cls-6" x1="721.42" y1="465.65" x2="721.42" y2="614.35"/><line class="cls-6" x1="738.03" y1="465.65" x2="738.03" y2="614.35"/><line class="cls-6" x1="825.76" y1="465.65" x2="825.76" y2="614.35"/><line class="cls-6" x1="808.88" y1="465.65" x2="808.88" y2="614.35"/><line class="cls-6" x1="531.7" y1="465.65" x2="531.7" y2="614.35"/><line class="cls-6" x1="548.3" y1="465.65" x2="548.3" y2="614.35"/><line class="cls-6" x1="704.81" y1="465.65" x2="704.81" y2="614.35"/><line class="cls-6" x1="610.67" y1="487.84" x2="566.39" y2="592.17"/><line class="cls-6" x1="626.99" y1="487.84" x2="582.71" y2="592.17"/><line class="cls-6" x1="429.17" y1="512.52" x2="558.82" y2="567.55"/><line class="cls-6" x1="784.58" y1="487.83" x2="740.29" y2="592.17"/><line class="cls-6" x1="592.67" y1="487.84" x2="548.54" y2="591.82"/><line class="cls-6" x1="642.31" y1="487.83" x2="686.6" y2="592.17"/><line class="cls-6" x1="660.51" y1="487.84" x2="704.8" y2="592.17"/><line class="cls-4" x1="375.19" y1="632.76" x2="375.19" y2="641.24"/><line class="cls-4" x1="531.7" y1="632.76" x2="531.7" y2="641.24"/><line class="cls-4" x1="375.19" y1="641.24" x2="531.7" y2="641.24"/><line class="cls-4" x1="548.3" y1="632.76" x2="548.3" y2="641.24"/><line class="cls-4" x1="704.81" y1="632.76" x2="704.81" y2="641.24"/><line class="cls-4" x1="548.3" y1="641.24" x2="704.81" y2="641.24"/><line class="cls-4" x1="721.27" y1="632.76" x2="721.27" y2="641.24"/><line class="cls-4" x1="825.76" y1="632.76" x2="825.76" y2="641.24"/><line class="cls-4" x1="721.27" y1="641.24" x2="825.76" y2="641.24"/><line class="cls-4" x1="254.17" y1="632.76" x2="254.17" y2="641.24"/><line class="cls-4" x1="358.66" y1="632.76" x2="358.66" y2="641.24"/><line class="cls-4" x1="254.17" y1="641.24" x2="358.66" y2="641.24"/><line class="cls-4" x1="218.41" y1="487.58" x2="209.94" y2="487.58"/><line class="cls-4" x1="218.41" y1="592.07" x2="209.94" y2="592.07"/><line class="cls-4" x1="209.94" y1="487.58" x2="209.94" y2="592.07"/><text class="cls-7" transform="translate(448.77 659.58)">x1.5</text><text class="cls-7" transform="translate(621.88 659.58)">x1.5</text><text class="cls-7" transform="translate(771.05 659.58)">x1</text><text class="cls-7" transform="translate(303.95 659.58)">x1</text><text class="cls-7" transform="translate(197.13 542.35)">x1</text></svg>