<svg id="Layer_1" data-name="Layer 1" xmlns="http://www.w3.org/2000/svg" viewBox="0 0 1080 1080"><defs><style>.cls-1{fill:#0f022d;}</style></defs><path class="cls-1" d="M242.51,590.66a16.84,16.84,0,0,1,28.85,12,16.87,16.87,0,1,1-28.85-12Zm12-1.14a12.45,12.45,0,0,0-9.21,3.78,13.68,13.68,0,0,0,0,18.78,13.13,13.13,0,0,0,18.43,0,13.77,13.77,0,0,0,0-18.83A12.42,12.42,0,0,0,254.5,589.52Z"/><path class="cls-1" d="M291.54,592.84a11.08,11.08,0,0,1,8.62,3.76,15.25,15.25,0,0,1,0,19.2A11.84,11.84,0,0,1,285.68,618a11,11,0,0,1-4-4.18v16.86h-3.88V593.35h3.88v5.28a11,11,0,0,1,4.06-4.25A11.13,11.13,0,0,1,291.54,592.84Zm-.74,23a8.24,8.24,0,0,0,6.35-2.71,11,11,0,0,0,0-13.9,8.19,8.19,0,0,0-6.35-2.73,8.73,8.73,0,0,0-6.59,2.73,10.49,10.49,0,0,0,0,13.87A8.71,8.71,0,0,0,290.8,615.87Z"/><path class="cls-1" d="M321.53,592.84a12,12,0,0,1,9.53,4.06,14.45,14.45,0,0,1,3.32,10.46h-22a8.77,8.77,0,0,0,2.85,6.26,9.36,9.36,0,0,0,6.49,2.29q5.75,0,8-4.48h4a12.46,12.46,0,0,1-4.81,6.05,13.37,13.37,0,0,1-7.38,2.08,12.81,12.81,0,0,1-9.46-3.72,12.94,12.94,0,0,1-3.71-9.55,13.31,13.31,0,0,1,3.69-9.65A12.55,12.55,0,0,1,321.53,592.84Zm0,3.64a8.85,8.85,0,0,0-5.86,2,9.17,9.17,0,0,0-3.11,5.23h17.62a9.06,9.06,0,0,0-2.95-5.25A8.34,8.34,0,0,0,321.53,596.48Z"/><path class="cls-1" d="M353.11,592.84a8.94,8.94,0,0,1,6.82,2.61,10.21,10.21,0,0,1,2.48,7.29V619h-3.88V603.49q0-7-6.49-7a7.4,7.4,0,0,0-6,2.52,10.22,10.22,0,0,0-2.13,6.82V619H340V593.35h3.88v5.09A9.55,9.55,0,0,1,353.11,592.84Z"/><path class="cls-1" d="M409,586.34h4.77V619h-3.88v-27.7L398.8,608.06h-.37l-11.07-16.72V619h-3.88v-32.7h4.76l10.37,15.6Z"/><path class="cls-1" d="M421.34,582.79a2.88,2.88,0,0,1,3.88,0,2.46,2.46,0,0,1,.77,1.82,2.51,2.51,0,0,1-.77,1.87,2.88,2.88,0,0,1-3.88,0,2.51,2.51,0,0,1-.77-1.87A2.46,2.46,0,0,1,421.34,582.79Zm0,36.25V593.35h3.87V619Z"/><path class="cls-1" d="M445.14,592.84a8.94,8.94,0,0,1,6.82,2.61,10.21,10.21,0,0,1,2.48,7.29V619h-3.88V603.49q0-7-6.49-7a7.43,7.43,0,0,0-6,2.52,10.27,10.27,0,0,0-2.12,6.82V619h-3.88V593.35h3.88v5.09A9.54,9.54,0,0,1,445.14,592.84Z"/><path class="cls-1" d="M482.14,586.34H486V619h-3.88v-5.18a11.09,11.09,0,0,1-4.06,4.18,11.3,11.3,0,0,1-5.84,1.52,11.1,11.1,0,0,1-8.62-3.76,15.29,15.29,0,0,1,0-19.2,11.37,11.37,0,0,1,18.52,2ZM473,615.87a8.71,8.71,0,0,0,6.59-2.74,10.49,10.49,0,0,0,0-13.87,8.73,8.73,0,0,0-6.59-2.73,8.19,8.19,0,0,0-6.35,2.73,11,11,0,0,0,0,13.9A8.24,8.24,0,0,0,473,615.87Z"/><path class="cls-1" d="M503.82,619.56a14.58,14.58,0,0,1-8.37-2.25,9.32,9.32,0,0,1-4.06-6.3h4a5.87,5.87,0,0,0,2.78,3.73,11.83,11.83,0,0,0,5.68,1.13,9.94,9.94,0,0,0,4.78-1,3.1,3.1,0,0,0,1.85-2.82,2.39,2.39,0,0,0-.93-1.9,5.83,5.83,0,0,0-2-1.09q-1.08-.33-3.69-1c-.41-.09-.72-.17-.94-.23a29.53,29.53,0,0,1-8-2.85,4.83,4.83,0,0,1-2.19-4.39,6.63,6.63,0,0,1,2.87-5.7,14.87,14.87,0,0,1,14.86-.12,8.71,8.71,0,0,1,3.62,5.45h-3.93c-.93-2.46-3.24-3.69-6.91-3.69a9.4,9.4,0,0,0-4.81,1.05,3.11,3.11,0,0,0-1.78,2.73,2.23,2.23,0,0,0,1.45,2.13,39.89,39.89,0,0,0,5.79,1.79l3.11.8c.7.18,1.54.45,2.52.79a10.42,10.42,0,0,1,2.17,1,11.2,11.2,0,0,1,1.45,1.19,3.89,3.89,0,0,1,1,1.64,7,7,0,0,1,.28,2.08,6.58,6.58,0,0,1-3,5.81A13.25,13.25,0,0,1,503.82,619.56Z"/><path class="cls-1" d="M559,619l-3.88-9.81H539.93L536.05,619h-4.11L545,586.34h5L563.1,619Zm-17.57-13.5h12.24L547.54,590Z"/><path class="cls-1" d="M568.8,619v-32.7h3.87V619Z"/><path class="cls-1" d="M617.75,586.34h3.88V619h-3.88V604h-19v15h-3.88v-32.7h3.88v14h19Z"/><path class="cls-1" d="M650.08,593.35H654V619h-3.88v-5.18A11.47,11.47,0,0,1,646,618a11.8,11.8,0,0,1-14.43-2.24,15.29,15.29,0,0,1,0-19.2,11.37,11.37,0,0,1,18.52,2Zm-9.16,22.52a8.71,8.71,0,0,0,6.59-2.74,10.49,10.49,0,0,0,0-13.87,8.73,8.73,0,0,0-6.59-2.73,8.16,8.16,0,0,0-6.37,2.73,11,11,0,0,0,0,13.9A8.24,8.24,0,0,0,640.92,615.87Z"/><path class="cls-1" d="M690,592.84a8,8,0,0,1,6.3,2.49q2.25,2.5,2.25,7V619h-3.88v-16q0-6.54-5.8-6.54a6.21,6.21,0,0,0-5.37,2.61,11.37,11.37,0,0,0-1.87,6.73l0,13.17h-3.92v-16q0-6.54-5.8-6.54a6.15,6.15,0,0,0-5.32,2.61,11.3,11.3,0,0,0-1.87,6.73V619h-3.88V593.35h3.88v4.86q2.71-5.37,8.36-5.37a8.51,8.51,0,0,1,5.19,1.51,7.87,7.87,0,0,1,2.85,4.37Q683.85,592.84,690,592.84Z"/><path class="cls-1" d="M719,592.84a11.06,11.06,0,0,1,8.61,3.76,15.25,15.25,0,0,1,0,19.2,11.38,11.38,0,0,1-18.5-1.94V619H705.2v-32.7h3.88v12.29a11,11,0,0,1,9.91-5.79Zm-.75,23a8.24,8.24,0,0,0,6.35-2.71,11,11,0,0,0,0-13.9,8.19,8.19,0,0,0-6.35-2.73,8.75,8.75,0,0,0-6.59,2.73,10.52,10.52,0,0,0,0,13.87A8.72,8.72,0,0,0,718.24,615.87Z"/><path class="cls-1" d="M754.91,593.35h3.88V619h-3.88V614a9.63,9.63,0,0,1-9.16,5.61,8.66,8.66,0,0,1-6.7-2.62q-2.41-2.61-2.41-7.29v-16.3h3.88v15.56q0,7,6.35,7a7.3,7.3,0,0,0,5.91-2.53,10.22,10.22,0,0,0,2.13-6.82Z"/><path class="cls-1" d="M778.6,592.84a13.07,13.07,0,0,1,1.58.09v4a15.26,15.26,0,0,0-1.63-.09,8.68,8.68,0,0,0-6.63,2.63c-1.66,1.77-2.48,4.25-2.48,7.46V619h-3.88V593.35h3.88v5.75Q772,592.83,778.6,592.84Z"/><path class="cls-1" d="M805.27,593.35h3.88v25.41q0,5.75-3.27,9.11a11.9,11.9,0,0,1-8.93,3.37,13.84,13.84,0,0,1-8.17-2.43,10.72,10.72,0,0,1-4.39-6.82h4a7.41,7.41,0,0,0,3.06,4.27,9.45,9.45,0,0,0,5.39,1.52,8.15,8.15,0,0,0,6.21-2.31,9.23,9.23,0,0,0,2.2-6.61v-5.19a11.37,11.37,0,0,1-4.11,4.18,11.2,11.2,0,0,1-5.79,1.52,11.07,11.07,0,0,1-8.62-3.76,15.06,15.06,0,0,1,0-19,11.48,11.48,0,0,1,18.52,2Zm-9.16,22.33a8.79,8.79,0,0,0,6.57-2.71,10.25,10.25,0,0,0,0-13.73,8.79,8.79,0,0,0-6.57-2.71,8.21,8.21,0,0,0-6.35,2.71,10.74,10.74,0,0,0,0,13.73A8.21,8.21,0,0,0,796.11,615.68Z"/><path class="cls-1" d="M829.3,449.57h-3.54v-.81h8v.81H830.1v3.86h-.8Z"/><path class="cls-1" d="M834.37,448.77h1l3,3.9,3-3.9h1v4.67h-.8V449.8l-2.79,3.63H838l-2.78-3.62v3.62h-.8Z"/><path class="cls-1" d="M310,448.76H269.66a32.07,32.07,0,0,0-32,32v40.29a32.06,32.06,0,0,0,32,32H310a32.05,32.05,0,0,0,32-32V480.79A32.06,32.06,0,0,0,310,448.76Zm15.42,72.32A15.44,15.44,0,0,1,310,536.5H269.66a15.43,15.43,0,0,1-15.42-15.42V480.79a15.43,15.43,0,0,1,15.42-15.42H310a15.44,15.44,0,0,1,15.42,15.42Z"/><path class="cls-1" d="M688.2,553.1l-17.1-40-19.17-44.88a32,32,0,0,0-29.45-19.44H597.4A32,32,0,0,0,568,468.21l-19.17,44.88-17.1,40h18.06l10.77-25.22,2.76-6.47,7.1-16.6,3.25-7.61,9.59-22.47a15.4,15.4,0,0,1,14.18-9.36h25.08a15.38,15.38,0,0,1,14.18,9.36l12.2,28.56H587.25l-7.09,16.6H656l14.19,33.21Z"/><rect class="cls-1" x="704.81" y="448.76" width="16.61" height="104.34"/><polygon class="cls-1" points="809.15 448.76 809.15 553.11 792.54 553.11 792.54 519.89 737.82 519.89 744.92 503.29 792.54 503.29 792.54 448.76 809.15 448.76"/><path class="cls-1" d="M515.09,553.1H498.48v-72a15.76,15.76,0,0,0-15.74-15.74H375.18V553.1h-16.6V448.77H482.85A32.28,32.28,0,0,1,515.09,481Z"/><polygon class="cls-1" points="445.13 487.24 445.13 553.11 428.53 553.11 428.53 480.19 445.13 487.24"/></svg>