<svg id="Layer_1" data-name="Layer 1" xmlns="http://www.w3.org/2000/svg" viewBox="0 0 1080 1080"><defs><style>.cls-1{fill:#0f022d;}</style></defs><path class="cls-1" d="M534.06,591.72a8.39,8.39,0,1,1-2.37,5.84A7.88,7.88,0,0,1,534.06,591.72Zm5.82-.56a6.06,6.06,0,0,0-4.47,1.84,6.65,6.65,0,0,0,0,9.12,6.37,6.37,0,0,0,9,0,6.7,6.7,0,0,0,0-9.14A6,6,0,0,0,539.88,591.16Z"/><path class="cls-1" d="M557.86,592.77a5.38,5.38,0,0,1,4.19,1.83,7.42,7.42,0,0,1,0,9.32,5.74,5.74,0,0,1-7,1.09,5.31,5.31,0,0,1-2-2v8.19h-1.89V593h1.89v2.57a5.32,5.32,0,0,1,4.8-2.82ZM557.5,604a4,4,0,0,0,3.09-1.32,5.35,5.35,0,0,0,0-6.75,4,4,0,0,0-3.09-1.32,4.27,4.27,0,0,0-3.2,1.32,5.11,5.11,0,0,0,0,6.74A4.28,4.28,0,0,0,557.5,604Z"/><path class="cls-1" d="M572.42,592.77a5.83,5.83,0,0,1,4.63,2,7,7,0,0,1,1.61,5.08H568a4.3,4.3,0,0,0,1.38,3,4.58,4.58,0,0,0,3.16,1.11,4,4,0,0,0,3.9-2.18h2a6.08,6.08,0,0,1-2.34,2.94,6.48,6.48,0,0,1-3.58,1,6.18,6.18,0,0,1-6.4-6.44,6.5,6.5,0,0,1,1.79-4.69A6.13,6.13,0,0,1,572.42,592.77Zm0,1.77a4.3,4.3,0,0,0-2.84,1,4.46,4.46,0,0,0-1.51,2.54h8.55a4.39,4.39,0,0,0-1.43-2.55A4,4,0,0,0,572.42,594.54Z"/><path class="cls-1" d="M587.76,592.77a4.37,4.37,0,0,1,3.31,1.27,5,5,0,0,1,1.2,3.54v7.92h-1.88V598c0-2.26-1-3.38-3.16-3.38a3.59,3.59,0,0,0-2.91,1.22,5,5,0,0,0-1,3.31v6.4h-1.88V593h1.88v2.48A4.63,4.63,0,0,1,587.76,592.77Z"/><path class="cls-1" d="M614.88,589.62h2.31V605.5h-1.88V592.05l-5.37,8.12h-.19l-5.37-8.12V605.5H602.5V589.62h2.31l5,7.58Z"/><path class="cls-1" d="M620.88,587.9a1.41,1.41,0,0,1,1.88,0,1.18,1.18,0,0,1,.37.88,1.2,1.2,0,0,1-.37.91,1.41,1.41,0,0,1-1.88,0,1.21,1.21,0,0,1-.38-.91A1.19,1.19,0,0,1,620.88,587.9Zm0,17.6V593h1.88V605.5Z"/><path class="cls-1" d="M632.43,592.77a4.35,4.35,0,0,1,3.31,1.27,4.92,4.92,0,0,1,1.21,3.54v7.92h-1.89V598c0-2.26-1-3.38-3.15-3.38a3.57,3.57,0,0,0-2.91,1.22,5,5,0,0,0-1,3.31v6.4h-1.89V593H628v2.48A4.62,4.62,0,0,1,632.43,592.77Z"/><path class="cls-1" d="M650.39,589.62h1.89V605.5h-1.89V603a5.34,5.34,0,0,1-2,2,5.48,5.48,0,0,1-2.83.74,5.38,5.38,0,0,1-4.19-1.83,7.44,7.44,0,0,1,0-9.32,5.51,5.51,0,0,1,9,1ZM646,604a4.28,4.28,0,0,0,3.2-1.33,5.11,5.11,0,0,0,0-6.74,4.27,4.27,0,0,0-3.2-1.32,4,4,0,0,0-3.08,1.32,5.31,5.31,0,0,0,0,6.75A4,4,0,0,0,646,604Z"/><path class="cls-1" d="M660.92,605.75a7.12,7.12,0,0,1-4.06-1.09,4.52,4.52,0,0,1-2-3.06h1.92a2.84,2.84,0,0,0,1.35,1.81,5.81,5.81,0,0,0,2.76.55,4.9,4.9,0,0,0,2.32-.49,1.51,1.51,0,0,0,.9-1.37,1.13,1.13,0,0,0-.46-.92,2.83,2.83,0,0,0-1-.54c-.35-.1-1-.26-1.79-.47l-.46-.12a14.29,14.29,0,0,1-3.87-1.38,2.34,2.34,0,0,1-1.07-2.13,3.22,3.22,0,0,1,1.39-2.77,6.22,6.22,0,0,1,3.67-1,6.15,6.15,0,0,1,3.55,1,4.15,4.15,0,0,1,1.75,2.64H664c-.45-1.2-1.57-1.79-3.36-1.79a4.55,4.55,0,0,0-2.33.51,1.51,1.51,0,0,0-.87,1.32,1.1,1.1,0,0,0,.71,1,20.2,20.2,0,0,0,2.81.87l1.51.38c.34.09.75.22,1.22.39a4.71,4.71,0,0,1,1.06.48,5.49,5.49,0,0,1,.7.57,1.89,1.89,0,0,1,.5.8,3.42,3.42,0,0,1,.14,1,3.2,3.2,0,0,1-1.47,2.82A6.41,6.41,0,0,1,660.92,605.75Z"/><path class="cls-1" d="M687.7,605.5l-1.88-4.76h-7.37l-1.88,4.76h-2l6.35-15.88h2.43l6.35,15.88Zm-8.53-6.56h6l-3-7.53Z"/><path class="cls-1" d="M692.46,605.5V589.62h1.89V605.5Z"/><path class="cls-1" d="M716.23,589.62h1.88V605.5h-1.88v-7.31H707v7.31h-1.88V589.62H707v6.78h9.21Z"/><path class="cls-1" d="M731.92,593h1.89V605.5h-1.89V603a5.51,5.51,0,0,1-2,2,5.72,5.72,0,0,1-7-1.09,7.44,7.44,0,0,1,0-9.32,5.51,5.51,0,0,1,9,1ZM727.48,604a4.28,4.28,0,0,0,3.2-1.33,5.11,5.11,0,0,0,0-6.74,4.27,4.27,0,0,0-3.2-1.32,4,4,0,0,0-3.1,1.32,4.89,4.89,0,0,0-1.19,3.37,4.78,4.78,0,0,0,1.21,3.38A4,4,0,0,0,727.48,604Z"/><path class="cls-1" d="M751.29,592.77a3.88,3.88,0,0,1,3.06,1.22,4.92,4.92,0,0,1,1.09,3.41v8.1h-1.88v-7.76c0-2.12-.94-3.17-2.81-3.17a3,3,0,0,0-2.61,1.27,5.49,5.49,0,0,0-.91,3.26l0,6.4h-1.91v-7.76c0-2.12-.94-3.17-2.81-3.17a3,3,0,0,0-2.59,1.27,5.49,5.49,0,0,0-.9,3.26v6.4h-1.89V593h1.89v2.36a4.29,4.29,0,0,1,4.06-2.61,4.11,4.11,0,0,1,2.51.74,3.8,3.8,0,0,1,1.39,2.12A4.43,4.43,0,0,1,751.29,592.77Z"/><path class="cls-1" d="M765.38,592.77a5.38,5.38,0,0,1,4.18,1.83,7.42,7.42,0,0,1,0,9.32,5.52,5.52,0,0,1-9-.94v2.52h-1.88V589.62h1.88v6a5.32,5.32,0,0,1,4.81-2.82ZM765,604a4,4,0,0,0,3.09-1.32,5.35,5.35,0,0,0,0-6.75,4,4,0,0,0-3.09-1.32,4.23,4.23,0,0,0-3.19,1.32,5.11,5.11,0,0,0,0,6.74A4.24,4.24,0,0,0,765,604Z"/><path class="cls-1" d="M782.82,593h1.88V605.5h-1.88V603a4.69,4.69,0,0,1-4.45,2.72,4.22,4.22,0,0,1-3.25-1.27,5,5,0,0,1-1.17-3.54V593h1.88v7.56q0,3.38,3.09,3.38a3.52,3.52,0,0,0,2.86-1.23,5,5,0,0,0,1-3.31Z"/><path class="cls-1" d="M794.32,592.77a6.36,6.36,0,0,1,.77.05v1.93a7.47,7.47,0,0,0-.8,0,4.22,4.22,0,0,0-3.22,1.28,5.1,5.1,0,0,0-1.2,3.62v5.9H788V593h1.88v2.79A4.46,4.46,0,0,1,794.32,592.77Z"/><path class="cls-1" d="M807.26,593h1.89v12.34a6,6,0,0,1-1.59,4.42,5.76,5.76,0,0,1-4.33,1.64,6.77,6.77,0,0,1-4-1.18,5.2,5.2,0,0,1-2.13-3.31h2a3.62,3.62,0,0,0,1.48,2.07,4.63,4.63,0,0,0,2.62.74,4,4,0,0,0,3-1.12,4.49,4.49,0,0,0,1.06-3.21v-2.52a5.41,5.41,0,0,1-4.8,2.77,5.38,5.38,0,0,1-4.19-1.83,7.33,7.33,0,0,1,0-9.24,5.7,5.7,0,0,1,7-1.07,5.34,5.34,0,0,1,2,2Zm-4.44,10.84a4.27,4.27,0,0,0,3.19-1.31,5,5,0,0,0,0-6.67,4.31,4.31,0,0,0-3.19-1.31,4,4,0,0,0-3.08,1.31,5.2,5.2,0,0,0,0,6.67A4,4,0,0,0,802.82,603.86Z"/><path class="cls-1" d="M829.3,469.39h-3.54v-.81h8v.81H830.1v3.86h-.8Z"/><path class="cls-1" d="M834.37,468.59h1l3,3.9,3-3.9h1v4.67h-.8v-3.63l-2.79,3.63H838l-2.78-3.62v3.62h-.8Z"/><path class="cls-1" d="M310,468.58H269.66a32.07,32.07,0,0,0-32,32V540.9a32.06,32.06,0,0,0,32,32H310a32.05,32.05,0,0,0,32-32V500.61A32.06,32.06,0,0,0,310,468.58Zm15.42,72.32A15.44,15.44,0,0,1,310,556.32H269.66a15.43,15.43,0,0,1-15.42-15.42V500.61a15.43,15.43,0,0,1,15.42-15.42H310a15.43,15.43,0,0,1,15.42,15.42Z"/><path class="cls-1" d="M688.2,572.92l-17.1-40L651.93,488a32,32,0,0,0-29.45-19.44H597.4A32,32,0,0,0,568,488l-19.17,44.88-17.1,40h18.06l10.77-25.22,2.76-6.47,7.1-16.6,3.25-7.61,9.59-22.47a15.4,15.4,0,0,1,14.18-9.36h25.08a15.38,15.38,0,0,1,14.18,9.36l12.2,28.56H587.25l-7.09,16.6H656l14.19,33.21Z"/><rect class="cls-1" x="704.81" y="468.58" width="16.61" height="104.34"/><polygon class="cls-1" points="809.15 468.58 809.15 572.92 792.54 572.92 792.54 539.71 737.82 539.71 744.92 523.11 792.54 523.11 792.54 468.58 809.15 468.58"/><path class="cls-1" d="M515.09,572.92H498.48v-72a15.76,15.76,0,0,0-15.74-15.74H375.18v87.73h-16.6V468.59H482.85a32.27,32.27,0,0,1,32.24,32.24Z"/><polygon class="cls-1" points="445.13 507.06 445.13 572.92 428.53 572.92 428.53 500.01 445.13 507.06"/></svg>