<svg id="Layer_1" data-name="Layer 1" xmlns="http://www.w3.org/2000/svg" viewBox="0 0 1080 1080"><defs><style>.cls-1{fill:#0f022d;}</style></defs><path class="cls-1" d="M741.93,530.37a11.53,11.53,0,1,1,0,16.44,11.84,11.84,0,0,1,0-16.44Zm8.24.13a7.58,7.58,0,0,0-5.67,2.31,8.52,8.52,0,0,0,0,11.56,8.06,8.06,0,0,0,11.3,0,8.49,8.49,0,0,0,0-11.56A7.54,7.54,0,0,0,750.17,530.5Z"/><path class="cls-1" d="M775.36,531.84a7.39,7.39,0,0,1,5.77,2.58,10.59,10.59,0,0,1,0,13.14,7.4,7.4,0,0,1-5.81,2.56,6.87,6.87,0,0,1-6.12-3.31v8h-3.59v-22.6h3.59v3A6.85,6.85,0,0,1,775.36,531.84Zm-.79,14.84a4.87,4.87,0,0,0,3.75-1.59,6.48,6.48,0,0,0,0-8.22,4.87,4.87,0,0,0-3.75-1.59,5.12,5.12,0,0,0-3.86,1.61,6.26,6.26,0,0,0,0,8.2A5.14,5.14,0,0,0,774.57,546.68Z"/><path class="cls-1" d="M795.53,531.84a8.31,8.31,0,0,1,6.64,2.88,9.84,9.84,0,0,1,2.21,7.25H790.14a5.37,5.37,0,0,0,1.72,3.68,5.48,5.48,0,0,0,3.76,1.32,5.87,5.87,0,0,0,2.84-.67,4.22,4.22,0,0,0,1.84-1.94H804a8.12,8.12,0,0,1-3.25,4.3,9.4,9.4,0,0,1-5.19,1.46,8.76,8.76,0,0,1-9.11-9.11,9,9,0,0,1,2.55-6.58A8.71,8.71,0,0,1,795.53,531.84Zm0,3.12a5.12,5.12,0,0,0-3.37,1.13,5.64,5.64,0,0,0-1.83,2.95h10.2a5.27,5.27,0,0,0-1.74-3A4.85,4.85,0,0,0,795.53,535Z"/><path class="cls-1" d="M817.34,531.84a6,6,0,0,1,4.64,1.82,7.14,7.14,0,0,1,1.67,5v11h-3.6V539.42q0-4.14-3.82-4.14a4.39,4.39,0,0,0-3.52,1.42,5.83,5.83,0,0,0-1.23,4v9.08h-3.6V532.22h3.6v2.9A6.47,6.47,0,0,1,817.34,531.84Z"/><path class="cls-1" d="M855.86,527.44h4.23v22.3h-3.6V532.32l-6.88,10.38h-.35l-6.84-10.38v17.42h-3.6v-22.3h4.23l6.41,9.62Z"/><path class="cls-1" d="M866.59,524.32a2.4,2.4,0,0,1,1.69.62,2.06,2.06,0,0,1,.67,1.58,2.11,2.11,0,0,1-.67,1.62,2.32,2.32,0,0,1-1.69.64,2.26,2.26,0,0,1-1.65-.64,2.11,2.11,0,0,1-.67-1.62,2.06,2.06,0,0,1,.67-1.58A2.33,2.33,0,0,1,866.59,524.32Zm-1.78,25.42V532.22h3.6v17.52Z"/><path class="cls-1" d="M882,531.84a6,6,0,0,1,4.63,1.82,7.09,7.09,0,0,1,1.68,5v11h-3.6V539.42c0-2.76-1.28-4.14-3.82-4.14a4.38,4.38,0,0,0-3.52,1.42,5.83,5.83,0,0,0-1.23,4v9.08h-3.6V532.22h3.6v2.9A6.46,6.46,0,0,1,882,531.84Z"/><path class="cls-1" d="M906.25,525.21h3.6v24.53h-3.6v-2.93a7,7,0,0,1-6.15,3.31,7.42,7.42,0,0,1-5.81-2.56,10.59,10.59,0,0,1,0-13.14,7.41,7.41,0,0,1,5.77-2.58,7,7,0,0,1,6.18,3.38Zm-5.38,21.47a5.11,5.11,0,0,0,3.85-1.59,6.26,6.26,0,0,0,0-8.2,5.09,5.09,0,0,0-3.85-1.61,4.87,4.87,0,0,0-3.76,1.59,6.48,6.48,0,0,0,0,8.22A4.87,4.87,0,0,0,900.87,546.68Z"/><path class="cls-1" d="M921.76,550.12a10,10,0,0,1-5.78-1.59,6.58,6.58,0,0,1-2.82-4.43h3.66a3.43,3.43,0,0,0,1.6,2.15,6.8,6.8,0,0,0,3.4.69,6,6,0,0,0,2.76-.53,1.61,1.61,0,0,0,1-1.48,1.32,1.32,0,0,0-.49-1,3.1,3.1,0,0,0-1.15-.61c-.43-.12-1.14-.3-2.12-.54l-.82-.19a18.26,18.26,0,0,1-5.45-2,3.53,3.53,0,0,1-1.53-3.14,4.79,4.79,0,0,1,2-4.09,8.88,8.88,0,0,1,5.37-1.48,8.59,8.59,0,0,1,5.21,1.42,6.19,6.19,0,0,1,2.43,3.9h-3.63c-.51-1.42-1.87-2.14-4.07-2.14a5.56,5.56,0,0,0-2.71.55,1.63,1.63,0,0,0-1,1.46,1.21,1.21,0,0,0,.8,1.16,20.76,20.76,0,0,0,3.34,1c1.11.26,2,.48,2.63.66a17.53,17.53,0,0,1,2,.71,5.66,5.66,0,0,1,1.6,1,4,4,0,0,1,1.24,3,4.73,4.73,0,0,1-2.12,4.15A9.32,9.32,0,0,1,921.76,550.12Z"/><path class="cls-1" d="M756.88,588l-2.27-6h-9.68l-2.26,6h-3.82l8.63-22.29h4.59L760.7,588Zm-10.64-9.39h7.07l-3.54-9.34Z"/><path class="cls-1" d="M764.3,588V565.67h3.6V588Z"/><path class="cls-1" d="M797.71,565.67h3.6V588h-3.6v-9.74H786.27V588h-3.59V565.67h3.59v9.11h11.44Z"/><path class="cls-1" d="M819.62,570.44h3.6V588h-3.6V585a6.8,6.8,0,0,1-6.11,3.32,7.44,7.44,0,0,1-5.82-2.57,10.61,10.61,0,0,1,0-13.14,7.39,7.39,0,0,1,5.77-2.58,6.84,6.84,0,0,1,6.14,3.38Zm-5.35,14.47a5.11,5.11,0,0,0,3.86-1.6,6.26,6.26,0,0,0,0-8.2,5.12,5.12,0,0,0-3.86-1.61,4.86,4.86,0,0,0-3.76,1.6,6.5,6.5,0,0,0,0,8.21A4.86,4.86,0,0,0,814.27,584.91Z"/><path class="cls-1" d="M847.81,570.06a5.52,5.52,0,0,1,4.35,1.77,7.1,7.1,0,0,1,1.58,4.89V588h-3.6V577.48q0-4-3.47-4a3.78,3.78,0,0,0-3.19,1.47,6.33,6.33,0,0,0-1.11,3.92l0,9.07h-3.63V577.48q0-4-3.47-4a3.71,3.71,0,0,0-3.17,1.47,6.33,6.33,0,0,0-1.1,3.92V588h-3.6V570.44H831v2.81a6,6,0,0,1,5.44-3.19,5.25,5.25,0,0,1,5.42,3.67A6.26,6.26,0,0,1,847.81,570.06Z"/><path class="cls-1" d="M867.53,570.06a7.37,7.37,0,0,1,5.76,2.58,10.57,10.57,0,0,1,0,13.14,7.42,7.42,0,0,1-5.81,2.57,6.86,6.86,0,0,1-6.12-3.32V588h-3.6V563.44h3.6v10A6.86,6.86,0,0,1,867.53,570.06Zm-.8,14.85a4.85,4.85,0,0,0,3.76-1.6,6.47,6.47,0,0,0,0-8.21,4.85,4.85,0,0,0-3.76-1.6,5.09,5.09,0,0,0-3.85,1.61,6.26,6.26,0,0,0,0,8.2A5.09,5.09,0,0,0,866.73,584.91Z"/><path class="cls-1" d="M891.1,570.44h3.6V588h-3.6v-2.89a6.49,6.49,0,0,1-5.83,3.28,5.85,5.85,0,0,1-4.55-1.82,7.17,7.17,0,0,1-1.66-5V570.44h3.6v10.33q0,4.14,3.76,4.14a4.36,4.36,0,0,0,3.46-1.42,5.93,5.93,0,0,0,1.22-4Z"/><path class="cls-1" d="M908.27,570.06a4.12,4.12,0,0,1,1.05.1v3.66c-.42,0-.79-.06-1.08-.06A5.81,5.81,0,0,0,904,575.3a6.2,6.2,0,0,0-1.59,4.64v8h-3.6V570.44h3.6v3.48A5.88,5.88,0,0,1,908.27,570.06Z"/><path class="cls-1" d="M925.5,570.44h3.6v17.3a8.49,8.49,0,0,1-2.29,6.24,8.29,8.29,0,0,1-6.18,2.33,9.8,9.8,0,0,1-5.75-1.69,7,7,0,0,1-3-4.84h3.73a4.16,4.16,0,0,0,1.75,2.47,5.7,5.7,0,0,0,3.15.84,4.84,4.84,0,0,0,3.7-1.34,5.4,5.4,0,0,0,1.27-3.88v-3a7,7,0,0,1-6.11,3.29,7.46,7.46,0,0,1-5.8-2.55,10.31,10.31,0,0,1,0-13,7.43,7.43,0,0,1,5.78-2.57,7.05,7.05,0,0,1,3.55.91,7.38,7.38,0,0,1,2.56,2.47Zm-5.35,14.27a5.12,5.12,0,0,0,3.85-1.57,6,6,0,0,0,0-8,5.11,5.11,0,0,0-3.84-1.6,4.91,4.91,0,0,0-3.76,1.58,5.7,5.7,0,0,0-1.46,4,5.65,5.65,0,0,0,1.48,4A4.91,4.91,0,0,0,920.15,584.71Z"/><path class="cls-1" d="M742.39,484.5h-3.54v-.81h8v.81h-3.65v3.86h-.8Z"/><path class="cls-1" d="M747.46,483.7h1l3,3.89,3-3.89h1v4.67h-.8v-3.63l-2.79,3.63H751l-2.78-3.62v3.62h-.8Z"/><path class="cls-1" d="M223,483.69H182.75a32.07,32.07,0,0,0-32,32V556a32.06,32.06,0,0,0,32,32H223a32.05,32.05,0,0,0,32-32v-40.3A32.06,32.06,0,0,0,223,483.69ZM238.46,556A15.44,15.44,0,0,1,223,571.43H182.75A15.43,15.43,0,0,1,167.33,556v-40.3a15.43,15.43,0,0,1,15.42-15.41H223a15.43,15.43,0,0,1,15.42,15.41Z"/><path class="cls-1" d="M601.29,588l-17.1-40L565,503.14a32,32,0,0,0-29.45-19.44H510.49a32,32,0,0,0-29.44,19.44L461.88,548l-17.1,40h18.06l10.77-25.22,2.76-6.47,7.1-16.6,3.25-7.61,9.59-22.47a15.4,15.4,0,0,1,14.18-9.36h25.08a15.38,15.38,0,0,1,14.18,9.36L562,538.22H500.34l-7.09,16.6H569L583.23,588Z"/><rect class="cls-1" x="617.9" y="483.69" width="16.61" height="104.34"/><polygon class="cls-1" points="722.24 483.69 722.24 588.03 705.63 588.03 705.63 554.82 650.91 554.82 658.01 538.22 705.63 538.22 705.63 483.69 722.24 483.69"/><path class="cls-1" d="M428.18,588H411.57V516a15.76,15.76,0,0,0-15.74-15.74H288.27V588h-16.6V483.7H395.94a32.27,32.27,0,0,1,32.24,32.24Z"/><polygon class="cls-1" points="358.23 522.17 358.23 588.03 341.62 588.03 341.62 515.12 358.23 522.17"/></svg>